<svg xmlns="http://www.w3.org/2000/svg" id="Layer_1" viewBox="0 0 882.4 169.2">
  <style>
    .st0{fill:#F1FAFE;} .st1{fill:#A7A9AC;} .st2{fill:#96080B;} .st3{fill:#E62F25;} .st4{fill:#FBC8B4;} .st5{fill:#231F20;} .st6{fill:#4167B1;} .st7{fill:none;stroke:#4167B1;stroke-width:3;} .st8{fill:#FFFFFF;stroke:#4167B1;stroke-width:3;} .st9{fill:#D9F1FD;stroke:#4167B1;stroke-width:3;stroke-miterlimit:10;} .st10{font-family:&apos;OctinSportsRg-Regular&apos;;} .st11{font-size:16px;} .st12{fill:#F15623;stroke:#4167B1;stroke-width:2;} .st13{fill:none;stroke:#4167B1;stroke-width:2;} .st14{fill:#FFFFFF;stroke:#4167B1;stroke-width:2;} .st15{fill:#D9F1FD;stroke:#4167B1;stroke-width:2;stroke-miterlimit:10;} .st16{fill:#4167B1;stroke:#4167B1;stroke-width:3;} .st17{fill:#2CBCEE;stroke:#4167B1;stroke-width:2;} .st18{fill:#CC2036;stroke:#4167B1;stroke-width:2;}
  </style>
  <g>
    <path d="M0 119.9h878.2c2.3 0 4.2 1.9 4.2 4.2v26.2c0 2.3-1.9 4.2-4.2 4.2H0v-34.6z" class="st0"/>
    <path d="M139.3 91.6c0 5.2.5 10.4 1.4 15.5l-1.3-.3-1.5-.3-2.8-.6c-.8-4.7-1.2-9.5-1.1-14.3v-2.3c.1-5.7.8-11.3 2.1-16.8l2.9-.5 2.9-.6c-1.6 5.9-2.4 11.9-2.5 18-.1.7-.1 1.5-.1 2.2z" class="st1"/>
    <path d="M122.4 120.2v17.7l-33.9-14.1v-14.6c0-.3.1-.6.2-.9l5.1 1.8v10.2l23.5 9.7v-10.8c0-.3.1-.6.2-.9l4.9 1.9z" class="st1"/>
    <path d="M75.9 104l1.2.4c-1.4 2.1-3.2 3.5-5.5 3.5-5.7 0-8.6-8.2-8.6-16.2s3-16.2 8.6-16.2c2.3 0 4.2 1.4 5.6 3.5l-1.2.4c-.6-.8-1.6-1.3-2.6-1.4-.3 0-.6.1-.9.2-2.3.7-4.1 4.3-4.8 9.2-.1.7-.2 1.4-.2 2.2s-.1 1.4-.1 2.1c0 6.8 2.2 12.5 5.1 13.5.3.1.6.1.9.2.9-.2 1.8-.7 2.5-1.4z" class="st1"/>
    <path d="M143.4 127.5l-21.1-7.3-5.1-1.8-23.6-8.2-5.1-1.8-11.5-4-1.2-.4c-.6.8-1.5 1.2-2.5 1.3-.3 0-.6-.1-.9-.2-2.9-1-5.1-6.6-5.1-13.5l.9.2 5.1 1.1 1.6.3 2.6.5 1.7.4.9.2 55.1 11.6c1.5 9.1 4.4 16.7 8.2 21.6z" class="st2"/>
    <path d="M154.2 109.9v18.7c-5.2 0-10.9-8.3-13.5-21.6l13.5 2.9z" class="st2"/>
    <path d="M154.2 68.7V110l-13.5-2.8-1.3-.3-1.5-.3-2.8-.6-55-11.7-.9-.2-1.7-.4-2.6-.5-1.6-.3-5.1-1.1-.9-.2c0-.7 0-1.4.1-2.1s.1-1.5.2-2.2l.9-.2 4.8-1 1-.2 2.5-.6 1.7-.4.9-.2 56.7-12.2 2.9-.5 2.9-.6 12.3-2.7z" class="st3"/>
    <path d="M143.4 55.7c-3.1 4.1-5.6 9.9-7.2 16.8L79.5 84.8l-.9.2-1.7.3-2.5.6-1 .2-4.8 1-.9.2c.7-4.8 2.6-8.4 4.8-9.2.3-.1.5-.1.8-.1 1 .1 2 .6 2.6 1.4l67.5-23.7z" class="st4"/>
    <path d="M154.2 54.6v14.1l-12.3 2.7c2.9-10.5 7.7-16.8 12.3-16.8z" class="st4"/>
    <path d="M169.1 91.6c0 5.7-.5 11.3-1.7 16.8-2.7 12.4-8.2 20.2-13.2 20.2-5.2 0-10.9-8.3-13.5-21.6l-1.3-.3-1.5-.3c-.9-4.9-1.3-9.9-1.3-14.9 0-6.6.7-13.2 2.3-19.7l2.9-.6c2.9-10.4 7.8-16.7 12.3-16.7 4.9 0 10.2 7.4 13 19.3 1.4 5.9 2 11.9 2 17.8z" class="st5"/>
    <path d="M154.2 128.7v5.2c-4 0-7.7-2.3-10.8-6.4-3.8-5-6.7-12.5-8.2-21.6l2.8.6 1.5.3 1.3.3c2.5 13.2 8.2 21.6 13.4 21.6z" class="st1"/>
    <path d="M174.3 91.6c0 5.7-.5 11.3-1.6 16.8-3 15.1-10.1 25.4-18.5 25.4v-5.2c5 0 10.5-7.8 13.2-20.2 1.2-5.5 1.7-11.2 1.7-16.8 0-5.9-.6-11.9-1.9-17.7-2.8-11.9-8.1-19.3-13-19.3-4.6 0-9.4 6.3-12.3 16.7l-2.9.6-2.8.6c1.6-6.9 4.1-12.8 7.2-16.8s6.8-6.4 10.8-6.4c8.3 0 15.2 10 18.3 24.6 1.2 5.9 1.9 11.8 1.8 17.7z" class="st1"/>
    <path d="M139.3 89.3c.1-6.1 1-12.1 2.5-18l-2.8.7-2.8.6c-1.3 5.5-2 11.2-2.1 16.8v2.3c0 4.8.4 9.6 1.1 14.3l2.8.6 1.5.3 1.3.3c-1-5.1-1.5-10.3-1.4-15.5-.1-.8-.1-1.6-.1-2.4z" class="st1"/>
    <path d="M154.2 74.3h641.9c2.3 0 4.2 1.9 4.2 4.2v26.2c0 2.3-1.9 4.2-4.2 4.2H154.2V74.3z" class="st6"/>
  </g>
  <g>
    <circle cx="225.4" cy="51.6" r="45.8" class="st8"/>
    <path d="M259.9 52.5l-32.5 4.6c0 .4.1.9.1 1.3 0 10.8-8.8 19.6-19.6 19.6s-19.6-8.8-19.6-19.6 8.8-19.6 19.6-19.6h52c3.3 9 0 13.7 0 13.7z" class="st9"/>
    <text transform="translate(194.974 127.54)">
      <tspan x="0" y="0" class="st6 st10 st11">Proper </tspan><tspan x="-5.6" y="19.2" class="st6 st10 st11">Coaching</tspan>
    </text>
  </g>
  <g>
    <ellipse cx="330.5" cy="49" class="st8" rx="46" ry="47.5"/>
    <path d="M343.3 21.7v14.7h-25.8V21.7c0-3.6 2.9-6.5 6.5-6.5h12.9c3.5.1 6.4 3 6.4 6.5z" class="st12"/>
    <path d="M317.5 62.2h25.8v14.7c0 3.6-2.9 6.4-6.5 6.4H324c-3.6 0-6.4-2.9-6.5-6.4V62.2z" class="st12"/>
    <path d="M303.2 36.4h54.4c3.8 0 6.8 3.1 6.8 6.8v12.1c0 3.8-3.1 6.8-6.8 6.8h-54.4c-3.8 0-6.8-3.1-6.8-6.8V43.2c0-3.7 3-6.8 6.8-6.8z" class="st12"/>
    <path d="M326.2 38.9h8.5c3 0 5.5 2.5 5.5 5.5v9.1c0 3-2.5 5.5-5.5 5.5h-8.5c-3 0-5.5-2.5-5.5-5.5v-9.1c0-3 2.4-5.5 5.5-5.5z" class="st13"/>
    <text transform="translate(287.263 127.54)">
      <tspan x="0" y="0" class="st6 st10 st11">Pre Season </tspan><tspan x="11.5" y="19.2" class="st6 st10 st11">Physical</tspan><tspan x="22.5" y="38.4" class="st6 st10 st11">Exams</tspan>
    </text>
  </g>
  <g>
    <path d="M442.7 53.5c-1.3 9.4 2.1 15.5 2.1 15.5-25.8 20.1-26 .7-34.5 0-4.2-.3-9.3-.7-13.2-.9-1.6-3.8-2.4-8-2.4-12.1 0-20.1 18.6-36.4 41.6-36.4 8 0 15.8 2 22.8 5.9-11.3 10.6-15.4 20.4-16.4 28z" class="st14"/>
    <path d="M457.3 55.5l-2.4 12.4" class="st7"/>
    <path d="M466 50.4l-.1 3" class="st7"/>
    <path d="M457.3 55.5h2.2" class="st7"/>
    <path d="M459.7 24.5l-3.5 31c-2.1-.2-4.3-.5-6.4-1l-.6-2-.5 1.8c-1.7-.5-3.6-1-5.6-1.8 1.2-7.7 5.2-17.5 16.6-28z" class="st7"/>
    <path d="M435.5 4.9c-25.3 0-45.8 20.5-45.8 45.8s20.5 45.8 45.8 45.8 45.8-20.5 45.8-45.8c0-25.3-20.5-45.8-45.8-45.8zm31.2 64.2c-3.3 2.3-7.1 3.5-11.1 3.5-3.3 0-6.6-1.1-9.2-3.2-25.9 20.3-26.2.7-34.7 0-4.3-.3-9.3-.7-13.3-.9-1.6-3.9-2.4-8-2.4-12.2 0-20.2 18.8-36.7 41.9-36.7 8 0 15.9 2 22.9 6L457.4 57c.4 0 .8 0 1.1.1l.6-3.2 1.5 3.1c2.3 0 4.5-.7 6.4-2.1.4-.3.7-.6 1-1l5.9 9.1c-2.1 2.3-4.5 4.4-7.2 6.1z" class="st8"/>
    <path d="M465.9 53.4l-.4 14.2-6-12.1c2.3 0 4.5-.7 6.4-2.1z" class="st7"/>
    <path d="M456.2 55.5l-1.4 12.4-.4 1.8-4.6-15.2c2.2.5 4.3.8 6.4 1z" class="st7"/>
    <path d="M454.9 67.9l-.4 3.2c-3.3 0-6.5-1.1-9.1-3.2l3.5-13.8 1.1.3 4.6 15.2.3-1.7z" class="st7"/>
    <circle cx="420.7" cy="42.7" r="6.2" class="st12"/>
    <text transform="translate(405.054 127.54)">
      <tspan x="0" y="0" class="st6 st10 st11">Proper </tspan><tspan x="-11.4" y="19.2" class="st6 st10 st11">Equipment</tspan>
    </text>
  </g>
  <g>
    <path d="M541.5 4c-25.3 0-45.8 20.5-45.8 45.8s20.5 45.8 45.8 45.8c25.3 0 45.8-20.5 45.8-45.8 0-25.3-20.5-45.8-45.8-45.8z" class="st8"/>
    <path d="M563.7 26.6l4.1 5.1-.2 19-.9.8-3.9-3.5-4.6-4.2-2.5-2.2 2.2 34.8-37.8 2.2 3.1-34.8-10.6 13.7-12.4-10.3L517.9 28l11.4-3.6 9.3 4 11-4 8.7 1.4 4.7.7z" class="st8"/>
    <path d="M576.9 42.9l-4.5 3.8v-9.3z" class="st8"/>
    <path d="M528.5 24.5l-.4 53.6 4.7-.3.4-51.3z"/>
    <path d="M519.3 27.3l-.2 20.9 3.3-4.4-3 34.8 4.2-.3.4-52.5z"/>
    <path d="M500.2 47.2l5.2 4.4.1-10.3z"/>
    <path d="M510 36.2l-.1 19.3 2.3 2 2.4-3.2.1-23.5z"/>
    <path d="M556.4 25.8l-.1 18 4.5 4.2.1-21.5z"/>
    <path d="M568.9 52V32.2l-4.6-5.7V51l2.2 2.2z"/>
    <path d="M537.7 28.2l-.4 49.3 4.7-.3.3-50.7z"/>
    <path d="M547.9 24.4l-1 .4-.4 52.1 4.9-.2.3-51.7z"/>
    <text transform="translate(509.38 127.54)">
      <tspan x="0" y="0" class="st6 st10 st11">Proper </tspan><tspan x="-15.2" y="19.2" class="st6 st10 st11">Officiating</tspan>
    </text>
  </g>
  <g>
    <circle cx="645.6" cy="52.4" r="45.8" class="st8"/>
    <path d="M662.5 47.2V34.5h-51.8v32.2h7.5c1-3.4 4.6-5.4 8-4.4 2.1.6 3.8 2.3 4.4 4.4h25.6c1-3.4 4.6-5.4 8-4.4 2.1.6 3.8 2.3 4.4 4.4h11.2V47.2h-17.3zm-31.5.1h-3.3v3.3h-6.3v-3.3H618V41h3.3v-3.3h6.3V41h3.4v6.3z" class="st15"/>
    <path d="M669 68.6c0 3.6-2.9 6.5-6.5 6.5s-6.5-2.9-6.5-6.5c0-.6.1-1.2.3-1.8 1-3.4 4.6-5.4 8-4.4 2.1.6 3.8 2.3 4.4 4.4.2.5.3 1.1.3 1.8z" class="st16"/>
    <path d="M630.7 41.3v5.9h-3.1v3.2h-6v-3.2h-3.1v-5.9h3.1v-3.1h6v3.1z" class="st3"/>
    <path d="M631 68.6c0 3.6-2.9 6.5-6.5 6.5s-6.5-2.9-6.5-6.5c0-.6.1-1.2.3-1.8 1-3.4 4.6-5.4 8-4.4 2.8.7 4.7 3.3 4.7 6.2z" class="st16"/>
    <text transform="translate(598.057 127.54)">
      <tspan x="0" y="0" class="st6 st10 st11">Medical Aid</tspan><tspan x="-4.6" y="19.2" class="st6 st10 st11"> at Sporting </tspan><tspan x="19.2" y="38.4" class="st6 st10 st11">Events</tspan>
    </text>
  </g>
  <g>
    <circle cx="752.5" cy="53.3" r="45.8" class="st8"/>
    <path d="M761.9 81.4l-20.4-.1c-7-24-.3-42.2-.3-42.2l4-.1 4.5-.1 4-.1 4.5-.1 5.7-.1c2.9 14.2 2.3 29-2 42.8z" class="st17"/>
    <path d="M759.5 34.8V39H755l-4-.1-4.5-.1v-4z" class="st12"/>
    <path d="M763.6 26.2v8.6h-21.2v-8.6h8.6v-7.1h4v7.1z" class="st18"/>
    <text transform="translate(711.942 127.54)">
      <tspan x="0" y="0" class="st6 st10 st11">Adaquate </tspan><tspan x="-.6" y="19.2" class="st6 st10 st11">Hydration</tspan>
    </text>
  </g>
</svg>
